HIERARCHY
ROOT Hips
{
	OFFSET 0.000000 0.000000 0.000000 
	CHANNELS 6 Xposition Yposition Zposition Zrotation Yrotation Xrotation
	JOINT LeftUpLeg
	{
		OFFSET 1.363060 -1.794630 0.839290 
		CHANNELS 3 Zrotation Yrotation Xrotation
		JOINT LeftLeg
		{
			OFFSET 2.448110 -6.726130 0.000000 
			CHANNELS 3 Zrotation Yrotation Xrotation
			JOINT LeftFoot
			{
				OFFSET 2.562200 -7.039590 0.000000 
				CHANNELS 3 Zrotation Yrotation Xrotation
				JOINT LeftToeBase
				{
					OFFSET 0.157640 -0.433110 2.322550 
					CHANNELS 3 Zrotation Yrotation Xrotation
					End Site
					{
						OFFSET 0.000000 0.000000 0.000000 
					}
				}
			}
		}
	}
	JOINT RightUpLeg
	{
		OFFSET -1.305520 -1.794630 0.839290 
		CHANNELS 3 Zrotation Yrotation Xrotation
		JOINT RightLeg
		{
			OFFSET -2.542530 -6.985550 0.000000 
			CHANNELS 3 Zrotation Yrotation Xrotation
			JOINT RightFoot
			{
				OFFSET -2.568260 -7.056230 0.000000 
				CHANNELS 3 Zrotation Yrotation Xrotation
				JOINT RightToeBase
				{
					OFFSET -0.164730 -0.452590 2.363150 
					CHANNELS 3 Zrotation Yrotation Xrotation
					End Site
					{
						OFFSET 0.000000 0.000000 0.000000 
					}
				}
			}
		}
	}
	JOINT Spine
	{
		OFFSET 0.028270 2.035590 -0.193380 
		CHANNELS 3 Zrotation Yrotation Xrotation
		JOINT Spine1
		{
			OFFSET 0.056720 2.048850 -0.042750 
			CHANNELS 3 Zrotation Yrotation Xrotation
			JOINT Neck1
			{
				OFFSET -0.054170 1.746240 0.172020 
				CHANNELS 3 Zrotation Yrotation Xrotation
				JOINT Head
				{
					OFFSET 0.104070 1.761360 -0.123970 
					CHANNELS 3 Zrotation Yrotation Xrotation
					End Site
					{
						OFFSET 0.000000 0.000000 0.000000 
					}
				}
			}
			JOINT LeftArm
			{
				OFFSET 3.362410 1.200890 -0.311210 
				CHANNELS 3 Zrotation Yrotation Xrotation
				JOINT LeftForeArm
				{
					OFFSET 4.983000 -0.000000 -0.000000 
					CHANNELS 3 Zrotation Yrotation Xrotation
					JOINT LeftHand
					{
						OFFSET 3.483560 -0.000000 -0.000000 
						CHANNELS 3 Zrotation Yrotation Xrotation
						JOINT LeftHandIndex1
						{
							OFFSET 0.715260 -0.000000 -0.000000 
							CHANNELS 3 Zrotation Yrotation Xrotation
							End Site
							{
								OFFSET 0.000000 0.000000 0.000000 
							}
						}
					}
				}
			}
			JOINT RightArm
			{
				OFFSET -3.136600 1.374050 -0.404650 
				CHANNELS 3 Zrotation Yrotation Xrotation
				JOINT RightForeArm
				{
					OFFSET -5.241900 -0.000000 -0.000000 
					CHANNELS 3 Zrotation Yrotation Xrotation
					JOINT RightHand
					{
						OFFSET -3.444170 -0.000000 -0.000000 
						CHANNELS 3 Zrotation Yrotation Xrotation
						JOINT RightHandIndex1
						{
							OFFSET -0.622530 -0.000000 -0.000000 
							CHANNELS 3 Zrotation Yrotation Xrotation
							End Site
							{
								OFFSET 0.000000 0.000000 0.000000 
							}
						}
					}
				}
			}
		}
	}
}
MOTION
Frames: 10
Frame Time: 0.041667
0.316203 16.920294 -1.920960 -0.045500 8.046852 -2.528261 -19.543985 -18.263407 -17.687984 3.530482 13.743744 40.650082 0.691290 -2.289307 -3.282217 0.656500 -5.182500 -14.429800 19.895388 8.253932 -17.217781 -5.324341 -14.306454 43.990159 0.517521 -7.154339 -13.684090 -1.082200 6.612000 -18.570900 4.698899 2.762395 10.543783 4.454060 1.127867 -3.705002 34.726840 -13.892256 3.444818 14.928300 -6.022400 6.694200 17.597982 -35.945300 -35.742913 149.077754 -41.809206 -107.831307 0.012196 0.973596 -26.750918 -7.125000 0.000000 0.000000 23.122126 -0.673579 19.728332 -146.705477 38.873911 -108.141427 0.888205 1.027152 -27.520405 7.125000 0.000000 0.000000 
0.315981 16.921847 -1.924178 -0.083055 8.046535 -2.484101 -19.484833 -18.277993 -17.752078 3.526145 13.746995 40.638421 0.682171 -2.226452 -3.298480 0.674900 -5.253000 -14.631500 19.931139 8.251308 -17.257449 -5.306394 -14.292127 43.923546 0.528930 -7.198128 -13.640975 -1.092900 6.643600 -18.663800 4.706799 2.789018 10.571123 4.438845 1.139923 -3.646294 34.774205 -13.891159 3.288054 14.938900 -6.023800 6.664300 18.177455 -36.370955 -36.230721 149.131371 -41.822032 -107.837841 0.036885 0.942702 -26.502162 -7.125000 0.000000 0.000000 23.159493 -0.708475 19.621074 -146.805899 38.791431 -108.208237 0.936747 1.017808 -27.534128 7.125000 0.000000 0.000000 
0.317756 16.924843 -1.925398 -0.160057 8.038211 -2.529424 -19.421988 -18.270053 -17.718549 3.524883 13.741418 40.628565 0.675654 -2.171006 -3.354003 0.705100 -5.366800 -14.957800 20.015771 8.236182 -17.193459 -5.295174 -14.277665 43.877249 0.534824 -7.216569 -13.607833 -1.088800 6.631300 -18.627700 4.725727 2.820170 10.622642 4.408260 1.151389 -3.587591 34.804849 -13.886850 3.116652 14.945700 -6.017100 6.647600 18.734524 -36.822076 -36.736245 149.431642 -41.613327 -108.036114 -0.014420 0.974304 -27.125561 -7.125000 0.000000 0.000000 23.173278 -0.730137 19.407433 -146.849814 38.750508 -108.240712 0.948172 1.012466 -27.580706 7.125000 0.000000 0.000000 
0.319975 16.925398 -1.926730 -0.158523 8.018675 -2.538879 -19.440421 -18.252883 -17.713515 3.524434 13.740889 40.627618 0.677081 -2.161256 -3.431554 0.736000 -5.480800 -15.285200 20.002492 8.234834 -17.187168 -5.294105 -14.275714 43.871869 0.539700 -7.237118 -13.594599 -1.089900 6.634800 -18.638000 4.736891 2.827618 10.646350 4.436461 1.150992 -3.560742 34.825218 -13.876722 2.964128 14.965900 -6.025500 6.600400 19.088158 -37.180898 -36.895471 149.696346 -41.424451 -108.202168 -0.021998 0.980187 -27.094347 -7.125000 0.000000 0.000000 23.179948 -0.799422 19.176725 -146.926594 38.677362 -108.301227 0.915736 1.013532 -27.644718 7.125000 0.000000 0.000000 
0.321750 16.923179 -1.930724 -0.080273 8.025568 -2.458739 -19.510467 -18.309625 -17.781308 3.519836 13.747686 40.620712 0.682352 -2.201176 -3.404454 0.719900 -5.421900 -15.116000 19.887447 8.241179 -17.297081 -5.300545 -14.285615 43.896643 0.533671 -7.194935 -13.560024 -1.084700 6.619500 -18.592800 4.732153 2.806480 10.623906 4.488892 1.139450 -3.576721 34.851425 -13.886452 2.889625 15.011600 -6.053500 6.565200 19.236602 -37.508554 -36.691819 149.808373 -41.372842 -108.233508 0.069049 0.938141 -26.085924 -7.125000 0.000000 0.000000 23.195299 -0.808701 19.044042 -146.983943 38.624907 -108.344035 0.894997 1.013288 -27.700127 7.125000 0.000000 0.000000 
0.321307 16.921182 -1.936160 -0.004449 8.084106 -2.388226 -19.572861 -18.398003 -17.855056 3.514677 13.756059 40.614060 0.678096 -2.196758 -3.326228 0.702600 -5.357600 -14.931300 19.787221 8.210384 -17.424090 -5.312681 -14.301445 43.944980 0.534020 -7.193081 -13.544993 -1.094300 6.647800 -18.676000 4.732018 2.758264 10.572454 4.563621 1.113499 -3.659609 34.814766 -13.907958 2.944627 15.025200 -6.067600 6.594300 19.185935 -37.827461 -36.193463 150.030272 -41.209191 -108.349679 0.139409 0.924055 -25.666140 -7.125000 0.000000 0.000000 23.160699 -0.822993 18.944206 -147.062892 38.557683 -108.399533 0.894908 1.025394 -27.824051 7.125000 0.000000 0.000000 
0.322305 16.920960 -1.939045 0.034821 8.117807 -2.334435 -19.609649 -18.469694 -17.913009 3.511032 13.764999 40.612418 0.664700 -2.119091 -3.321213 0.712700 -5.395100 -15.038900 19.724418 8.185081 -17.508928 -5.323574 -14.314040 43.988223 0.522256 -7.145367 -13.581325 -1.091100 6.638300 -18.648100 4.684406 2.760200 10.555747 4.516337 1.112688 -3.663961 34.815914 -13.937923 2.832352 14.998300 -6.089800 6.550100 19.268963 -38.279879 -35.816022 150.341215 -40.961316 -108.548334 0.146222 0.916551 -25.774729 -7.125000 0.000000 0.000000 23.294020 -0.988626 18.768869 -147.178294 38.456071 -108.479686 0.909981 1.036347 -27.955245 7.125000 0.000000 0.000000 
0.323969 16.922291 -1.939378 0.073939 8.082911 -2.280482 -19.640979 -18.477688 -17.955179 3.508687 13.769514 40.610563 0.660040 -2.089849 -3.327671 0.706200 -5.370900 -14.969600 19.663872 8.201469 -17.589025 -5.332407 -14.326076 44.024145 0.510614 -7.089922 -13.593611 -1.094300 6.647600 -18.675400 4.667776 2.780890 10.554032 4.513720 1.118350 -3.641407 34.806773 -13.951456 2.635576 14.967900 -6.116400 6.459200 19.283163 -38.812586 -35.471200 150.638891 -40.699046 -108.766655 0.093638 0.910517 -25.844961 -7.125000 0.000000 0.000000 23.365324 -1.229516 18.600892 -147.412962 38.256162 -108.640993 0.950284 1.041235 -28.143087 7.125000 0.000000 0.000000 
0.324524 16.921847 -1.941042 0.075490 8.055185 -2.263469 -19.634830 -18.454085 -17.972622 3.511091 13.771535 40.618738 0.665568 -2.138981 -3.261941 0.684900 -5.291100 -14.740800 19.654647 8.250352 -17.614370 -5.338407 -14.335354 44.050503 0.510450 -7.092269 -13.599980 -1.117200 6.714500 -18.872200 4.695914 2.785503 10.560346 4.563786 1.114457 -3.644251 34.824458 -13.929858 2.447948 14.979500 -6.130000 6.369900 19.157791 -39.358761 -34.895915 150.908890 -40.458596 -108.956144 0.061075 0.917585 -26.161671 -7.125000 0.000000 0.000000 23.390899 -1.338521 18.406409 -147.578352 38.117373 -108.751744 0.984022 1.047942 -28.301477 7.125000 0.000000 0.000000 
0.324302 16.919961 -1.942928 0.116585 8.041145 -2.243092 -19.669850 -18.458012 -17.983602 3.509442 13.771702 40.614686 0.670445 -2.171664 -3.252291 0.658800 -5.191400 -14.455400 19.610393 8.309691 -17.647780 -5.350742 -14.351079 44.101725 0.507377 -7.087152 -13.626177 -1.116100 6.711300 -18.862900 4.715581 2.776007 10.593117 4.642629 1.103055 -3.625193 34.842546 -13.921941 2.225017 14.996600 -6.146500 6.293900 18.885461 -39.818066 -34.316140 151.268767 -40.116988 -109.216510 0.011765 0.929639 -26.616758 -7.125000 0.000000 0.000000 23.401009 -1.199056 18.266687 -147.520720 38.167060 -108.711298 0.980234 1.046444 -28.262436 7.125000 0.000000 0.000000 
